HIERARCHY
ROOT hip
{
OFFSET -0.06 92.22 1.50
CHANNELS 6 Xposition Yposition Zposition Zrotation Xrotation Yrotation
JOINT abdomen
{
OFFSET 0 7.23 0
CHANNELS 6 Xposition Yposition Zposition Zrotation Xrotation Yrotation
JOINT chest
{
OFFSET 0 16.54 0
CHANNELS 6 Xposition Yposition Zposition Zrotation Xrotation Yrotation
JOINT neck
{
OFFSET 0 34.21 0
CHANNELS 6 Xposition Yposition Zposition Zrotation Xrotation Yrotation
JOINT head
{
OFFSET 0 6.29 0
CHANNELS 6 Xposition Yposition Zposition Zrotation Xrotation Yrotation
End Site
{
OFFSET 0 21.21 0
}
}
}
JOINT lCollar
{
OFFSET 4.06 26.61 -1.12
CHANNELS 6 Xposition Yposition Zposition Zrotation Xrotation Yrotation
JOINT lShldr
{
OFFSET 14.17 0 0
CHANNELS 6 Xposition Yposition Zposition Zrotation Xrotation Yrotation
JOINT lForeArm
{
OFFSET 26.12 0 0
CHANNELS 6 Xposition Yposition Zposition Zrotation Xrotation Yrotation
JOINT lHand
{
OFFSET 27.71 0 0
CHANNELS 6 Xposition Yposition Zposition Zrotation Xrotation Yrotation
JOINT lThumb1
{
OFFSET 2.29 -0.46 1.83
CHANNELS 6 Xposition Yposition Zposition Zrotation Xrotation Yrotation
JOINT lThumb2
{
OFFSET 5.29 0 0
CHANNELS 6 Xposition Yposition Zposition Zrotation Xrotation Yrotation
JOINT lThumb3
{
OFFSET 3.01 0 0
CHANNELS 6 Xposition Yposition Zposition Zrotation Xrotation Yrotation
End Site
{
OFFSET 2.62 0 0
}
}
}
}
JOINT lIndex1
{
OFFSET 9.37 0.29 2.59
CHANNELS 6 Xposition Yposition Zposition Zrotation Xrotation Yrotation
JOINT lIndex2
{
OFFSET 4.34 0 0
CHANNELS 6 Xposition Yposition Zposition Zrotation Xrotation Yrotation
JOINT lIndex3
{
OFFSET 2.16 0 0
CHANNELS 6 Xposition Yposition Zposition Zrotation Xrotation Yrotation
End Site
{
OFFSET 2.20 0 0
}
}
}
}
JOINT lMid1
{
OFFSET 9.47 0.83 0.29
CHANNELS 6 Xposition Yposition Zposition Zrotation Xrotation Yrotation
JOINT lMid2
{
OFFSET 4.77 0 0
CHANNELS 6 Xposition Yposition Zposition Zrotation Xrotation Yrotation
JOINT lMid3
{
OFFSET 2.87 0 0
CHANNELS 6 Xposition Yposition Zposition Zrotation Xrotation Yrotation
End Site
{
OFFSET 2.09 0 0
}
}
}
}
JOINT lRing1
{
OFFSET 8.65 1.01 -1.70
CHANNELS 6 Xposition Yposition Zposition Zrotation Xrotation Yrotation
JOINT lRing2
{
OFFSET 4.54 0 0
CHANNELS 6 Xposition Yposition Zposition Zrotation Xrotation Yrotation
JOINT lRing3
{
OFFSET 2.50 0 0
CHANNELS 6 Xposition Yposition Zposition Zrotation Xrotation Yrotation
End Site
{
OFFSET 2.20 0 0
}
}
}
}
JOINT lPinky1
{
OFFSET 7.69 0.66 -3.90
CHANNELS 6 Xposition Yposition Zposition Zrotation Xrotation Yrotation
JOINT lPinky2
{
OFFSET 3.21 0 0
CHANNELS 6 Xposition Yposition Zposition Zrotation Xrotation Yrotation
JOINT lPinky3
{
OFFSET 1.92 0 0
CHANNELS 6 Xposition Yposition Zposition Zrotation Xrotation Yrotation
End Site
{
OFFSET 1.78 0 0
}
}
}
}
}
}
}
}
JOINT rCollar
{
OFFSET -4.06 26.61 -1.12
CHANNELS 6 Xposition Yposition Zposition Zrotation Xrotation Yrotation
JOINT rShldr
{
OFFSET -14.17 0 0
CHANNELS 6 Xposition Yposition Zposition Zrotation Xrotation Yrotation
JOINT rForeArm
{
OFFSET -26.12 0 0
CHANNELS 6 Xposition Yposition Zposition Zrotation Xrotation Yrotation
JOINT rHand
{
OFFSET -27.71 0 0
CHANNELS 6 Xposition Yposition Zposition Zrotation Xrotation Yrotation
JOINT rThumb1
{
OFFSET -2.29 -0.46 1.83
CHANNELS 6 Xposition Yposition Zposition Zrotation Xrotation Yrotation
JOINT rThumb2
{
OFFSET -5.29 0 0
CHANNELS 6 Xposition Yposition Zposition Zrotation Xrotation Yrotation
JOINT rThumb3
{
OFFSET -3.01 0 0
CHANNELS 6 Xposition Yposition Zposition Zrotation Xrotation Yrotation
End Site
{
OFFSET -2.62 0 0
}
}
}
}
JOINT rIndex1
{
OFFSET -9.37 0.29 2.59
CHANNELS 6 Xposition Yposition Zposition Zrotation Xrotation Yrotation
JOINT rIndex2
{
OFFSET -4.34 0 0
CHANNELS 6 Xposition Yposition Zposition Zrotation Xrotation Yrotation
JOINT rIndex3
{
OFFSET -2.16 0 0
CHANNELS 6 Xposition Yposition Zposition Zrotation Xrotation Yrotation
End Site
{
OFFSET -2.20 0 0
}
}
}
}
JOINT rMid1
{
OFFSET -9.47 0.83 0.29
CHANNELS 6 Xposition Yposition Zposition Zrotation Xrotation Yrotation
JOINT rMid2
{
OFFSET -4.77 0 0
CHANNELS 6 Xposition Yposition Zposition Zrotation Xrotation Yrotation
JOINT rMid3
{
OFFSET -2.87 0 0
CHANNELS 6 Xposition Yposition Zposition Zrotation Xrotation Yrotation
End Site
{
OFFSET -2.09 0 0
}
}
}
}
JOINT rRing1
{
OFFSET -8.65 1.01 -1.70
CHANNELS 6 Xposition Yposition Zposition Zrotation Xrotation Yrotation
JOINT rRing2
{
OFFSET -4.54 0 0
CHANNELS 6 Xposition Yposition Zposition Zrotation Xrotation Yrotation
JOINT rRing3
{
OFFSET -2.50 0 0
CHANNELS 6 Xposition Yposition Zposition Zrotation Xrotation Yrotation
End Site
{
OFFSET -2.20 0 0
}
}
}
}
JOINT rPinky1
{
OFFSET -7.69 0.66 -3.90
CHANNELS 6 Xposition Yposition Zposition Zrotation Xrotation Yrotation
JOINT rPinky2
{
OFFSET -3.21 0 0
CHANNELS 6 Xposition Yposition Zposition Zrotation Xrotation Yrotation
JOINT rPinky3
{
OFFSET -1.92 0 0
CHANNELS 6 Xposition Yposition Zposition Zrotation Xrotation Yrotation
End Site
{
OFFSET -1.78 0 0
}
}
}
}
}
}
}
}
}
}
JOINT lThigh
{
OFFSET 8.73 -0 0
CHANNELS 6 Xposition Yposition Zposition Zrotation Xrotation Yrotation
JOINT lShin
{
OFFSET 0 -46.66 0
CHANNELS 6 Xposition Yposition Zposition Zrotation Xrotation Yrotation
JOINT lFoot
{
OFFSET 0 -40.14 0
CHANNELS 6 Xposition Yposition Zposition Zrotation Xrotation Yrotation
JOINT lToes
{
OFFSET 0 -8.88 14.22
CHANNELS 6 Xposition Yposition Zposition Zrotation Xrotation Yrotation
End Site
{
OFFSET 0 0 6.29
}
}
}
}
}
JOINT rThigh
{
OFFSET -8.73 0 -0
CHANNELS 6 Xposition Yposition Zposition Zrotation Xrotation Yrotation
JOINT rShin
{
OFFSET 0 -46.66 0
CHANNELS 6 Xposition Yposition Zposition Zrotation Xrotation Yrotation
JOINT rFoot
{
OFFSET 0 -40.14 0
CHANNELS 6 Xposition Yposition Zposition Zrotation Xrotation Yrotation
JOINT rToes
{
OFFSET 0 -8.88 14.22
CHANNELS 6 Xposition Yposition Zposition Zrotation Xrotation Yrotation
End Site
{
OFFSET 0 0 6.29
}
}
}
}
}
}
MOTION
Frames: 6
Frame Time: 0.03
-0.06 92.22 1.50 -0.24 -6.19 1.21 0 7.23 0 0.12 -0.26 0.12 0 16.54 0 0.26 1.32 0.24 0 34.21 0 1.54 29.14 -0.33 0 6.29 0 0.17 -25.32 0.95 4.06 26.61 -1.12 -0.65 3.97 7.62 14.17 0 0 -65.22 29.05 -6.76 26.12 0 0 -0.16 0.01 -11.25 27.71 0 0 -16.06 -5.83 -2.63 2.29 -0.46 1.83 58.13 51.36 -65.85 5.29 0 0 -36.29 -7.32 4.46 3.01 0 0 -44.67 -7.68 4.59 9.37 0.29 2.59 -50.88 -5.01 5.33 4.34 0 0 -100.76 -15.24 12.86 2.16 0 0 -43.24 -3.46 8.26 9.47 0.83 0.29 -54.96 -8.48 5.77 4.77 0 0 -100.32 -18.93 15.91 2.87 0 0 -41.16 -3.84 12.00 8.65 1.01 -1.70 -58.39 -2.27 8.75 4.54 0 0 -86.10 -8.37 8.96 2.50 0 0 -31.04 -1.22 5.67 7.69 0.66 -3.90 -61.46 -14.25 14.59 3.21 0 0 -78.39 -12.94 20.13 1.92 0 0 -35.43 -3.88 13.93 -4.06 26.61 -1.12 0.35 1.55 -5.42 -14.17 0 0 71.43 20.97 1.14 -26.12 0 0 0.11 0 8.00 -27.71 0 0 11.86 2.97 11.67 -2.29 -0.46 1.83 -47.12 57.76 71.66 -5.29 0 0 40.29 -3.87 -8.97 -3.01 0 0 21.12 -3.72 -9.82 -9.37 0.29 2.59 61.38 -6.78 -6.96 -4.34 0 0 118.02 -18.94 -11.60 -2.16 0 0 21.58 -0.88 -4.22 -9.47 0.83 0.29 59.09 -9.22 -7.82 -4.77 0 0 89.80 -16.11 -16.26 -2.87 0 0 34.57 -2.74 -10.58 -8.65 1.01 -1.70 61.55 -2.85 -9.77 -4.54 0 0 88.14 -8.76 -9.05 -2.50 0 0 25.71 -0.87 -4.98 -7.69 0.66 -3.90 56.95 -13.56 -9.61 -3.21 0 0 84.85 -19.76 -21.58 -1.92 0 0 38.52 -4.60 -14.92 8.73 -0 0 12.07 -7.62 20.34 0 -46.66 0 2.01 38.08 -9.50 0 -40.14 0 -4.22 -21.88 0.86 0 -8.88 14.22 0 0 0 -8.73 0 -0 -9.34 -7.88 -24.51 0 -46.66 0 -9.13 36.92 11.95 0 -40.14 0 7.36 -21.40 -6.72 0 -8.88 14.22 0 0 0 
0 92.25 1.56 -0.28 -6.22 1.13 0 7.23 0 0.12 -0.27 0.11 0 16.54 0 0.26 1.30 0.23 0 34.21 0 1.53 29.13 -0.31 0 6.29 0 0.10 -25.36 1.00 4.06 26.61 -1.12 -0.73 4.04 7.58 14.17 0 0 -65.10 29.08 -6.87 26.12 0 0 -0.16 0.01 -11.15 27.71 0 0 -16.28 -5.86 -2.49 2.29 -0.46 1.83 58.11 51.43 -65.84 5.29 0 0 -36.35 -7.34 4.46 3.01 0 0 -45.52 -7.69 4.65 9.37 0.29 2.59 -50.81 -5.00 5.33 4.34 0 0 -100.73 -15.24 12.86 2.16 0 0 -42.89 -3.40 8.20 9.47 0.83 0.29 -54.76 -8.44 5.76 4.77 0 0 -100.24 -18.91 15.92 2.87 0 0 -41.10 -3.83 11.98 8.65 1.01 -1.70 -58.18 -2.24 8.76 4.54 0 0 -85.86 -8.34 8.96 2.50 0 0 -30.91 -1.21 5.65 7.69 0.66 -3.90 -61.19 -14.20 14.58 3.21 0 0 -78.31 -12.91 20.12 1.92 0 0 -35.35 -3.86 13.91 -4.06 26.61 -1.12 0.36 1.55 -5.41 -14.17 0 0 71.46 20.98 1.08 -26.12 0 0 0.11 0 7.99 -27.71 0 0 12.09 2.98 11.59 -2.29 -0.46 1.83 -46.42 58.03 71.44 -5.29 0 0 40.19 -3.84 -8.94 -3.01 0 0 21.11 -3.71 -9.84 -9.37 0.29 2.59 61.31 -6.76 -6.98 -4.34 0 0 117.92 -18.92 -11.61 -2.16 0 0 20.90 -0.83 -4.08 -9.47 0.83 0.29 58.86 -9.19 -7.82 -4.77 0 0 89.82 -16.12 -16.26 -2.87 0 0 34.56 -2.74 -10.58 -8.65 1.01 -1.70 61.45 -2.84 -9.79 -4.54 0 0 88.13 -8.76 -9.05 -2.50 0 0 25.45 -0.84 -4.94 -7.69 0.66 -3.90 57.01 -13.57 -9.67 -3.21 0 0 84.81 -19.74 -21.57 -1.92 0 0 38.37 -4.56 -14.87 8.73 -0 0 12.03 -7.49 20.31 0 -46.66 0 2.02 37.97 -9.62 0 -40.14 0 -4.14 -21.90 1.10 0 -8.88 14.22 0 0 -0 -8.73 0 -0 -9.28 -7.75 -24.47 0 -46.66 0 -9.17 36.71 12.00 0 -40.14 0 7.43 -21.30 -6.71 0 -8.88 14.22 0 0 -0 
0.07 92.34 1.61 -0.32 -6.22 1.01 0 7.23 0 0.12 -0.29 0.11 0 16.54 0 0.25 1.27 0.22 0 34.21 0 1.52 29.11 -0.30 0 6.29 0 0.04 -25.40 1.05 4.06 26.61 -1.12 -0.80 4.11 7.55 14.17 0 0 -65.00 29.11 -6.96 26.12 0 0 -0.16 0.01 -11.04 27.71 0 0 -16.48 -5.88 -2.36 2.29 -0.46 1.83 58.08 51.50 -65.83 5.29 0 0 -36.41 -7.36 4.46 3.01 0 0 -46.37 -7.71 4.71 9.37 0.29 2.59 -50.77 -5.00 5.33 4.34 0 0 -100.75 -15.24 12.86 2.16 0 0 -42.54 -3.35 8.14 9.47 0.83 0.29 -54.59 -8.42 5.76 4.77 0 0 -100.19 -18.90 15.92 2.87 0 0 -41.05 -3.82 11.97 8.65 1.01 -1.70 -58.00 -2.21 8.77 4.54 0 0 -85.67 -8.31 8.96 2.50 0 0 -30.78 -1.20 5.63 7.69 0.66 -3.90 -60.96 -14.16 14.58 3.21 0 0 -78.25 -12.90 20.11 1.92 0 0 -35.29 -3.85 13.89 -4.06 26.61 -1.12 0.37 1.56 -5.41 -14.17 0 0 71.50 20.98 1.02 -26.12 0 0 0.11 0 7.97 -27.71 0 0 12.32 3.01 11.50 -2.29 -0.46 1.83 -45.74 58.29 71.22 -5.29 0 0 40.08 -3.82 -8.92 -3.01 0 0 21.12 -3.71 -9.85 -9.37 0.29 2.59 61.25 -6.75 -7.01 -4.34 0 0 117.85 -18.91 -11.62 -2.16 0 0 20.22 -0.78 -3.93 -9.47 0.83 0.29 58.66 -9.15 -7.82 -4.77 0 0 89.86 -16.13 -16.26 -2.87 0 0 34.56 -2.73 -10.58 -8.65 1.01 -1.70 61.36 -2.82 -9.80 -4.54 0 0 88.11 -8.75 -9.05 -2.50 0 0 25.17 -0.82 -4.90 -7.69 0.66 -3.90 57.07 -13.58 -9.72 -3.21 0 0 84.77 -19.73 -21.57 -1.92 0 0 38.22 -4.53 -14.83 8.73 -0 0 11.93 -7.30 20.22 0 -46.66 0 1.99 37.67 -9.68 0 -40.14 0 -4.07 -21.82 1.40 0 -8.88 14.22 0 0 0 -8.73 0 -0 -9.20 -7.58 -24.44 0 -46.66 0 -9.17 36.30 12.04 0 -40.14 0 7.50 -21.09 -6.72 0 -8.88 14.22 0 0 0 
0.15 92.47 1.67 -0.37 -6.17 0.88 0 7.23 0 0.12 -0.31 0.10 0 16.54 0 0.24 1.23 0.20 0 34.21 0 1.51 29.08 -0.28 0 6.29 0 -0.01 -25.44 1.09 4.06 26.61 -1.12 -0.86 4.17 7.53 14.17 0 0 -64.94 29.13 -7.02 26.12 0 0 -0.16 0.01 -10.94 27.71 0 0 -16.66 -5.90 -2.23 2.29 -0.46 1.83 58.05 51.56 -65.83 5.29 0 0 -36.47 -7.37 4.46 3.01 0 0 -47.19 -7.72 4.77 9.37 0.29 2.59 -50.76 -4.99 5.34 4.34 0 0 -100.81 -15.25 12.86 2.16 0 0 -42.19 -3.30 8.08 9.47 0.83 0.29 -54.44 -8.39 5.76 4.77 0 0 -100.18 -18.90 15.92 2.87 0 0 -41.02 -3.82 11.97 8.65 1.01 -1.70 -57.85 -2.18 8.78 4.54 0 0 -85.52 -8.28 8.95 2.50 0 0 -30.66 -1.19 5.62 7.69 0.66 -3.90 -60.75 -14.12 14.58 3.21 0 0 -78.22 -12.89 20.10 1.92 0 0 -35.23 -3.84 13.87 -4.06 26.61 -1.12 0.36 1.56 -5.41 -14.17 0 0 71.53 20.99 0.95 -26.12 0 0 0.11 0 7.95 -27.71 0 0 12.54 3.03 11.42 -2.29 -0.46 1.83 -45.06 58.54 71.01 -5.29 0 0 39.98 -3.79 -8.90 -3.01 0 0 21.12 -3.70 -9.86 -9.37 0.29 2.59 61.20 -6.74 -7.04 -4.34 0 0 117.80 -18.90 -11.63 -2.16 0 0 19.55 -0.72 -3.79 -9.47 0.83 0.29 58.48 -9.12 -7.82 -4.77 0 0 89.91 -16.14 -16.26 -2.87 0 0 34.56 -2.73 -10.58 -8.65 1.01 -1.70 61.28 -2.81 -9.82 -4.54 0 0 88.10 -8.75 -9.05 -2.50 0 0 24.88 -0.79 -4.86 -7.69 0.66 -3.90 57.14 -13.59 -9.78 -3.21 0 0 84.74 -19.72 -21.57 -1.92 0 0 38.07 -4.49 -14.78 8.73 -0 0 11.79 -7.08 20.06 0 -46.66 0 1.93 37.17 -9.69 0 -40.14 0 -4.01 -21.65 1.77 0 -8.88 14.22 0 0 -0 -8.73 0 -0 -9.10 -7.36 -24.44 0 -46.66 0 -9.12 35.68 12.08 0 -40.14 0 7.55 -20.77 -6.73 0 -8.88 14.22 0 0 -0 
0.25 92.63 1.73 -0.41 -6.06 0.76 0 7.23 0 0.12 -0.33 0.09 0 16.54 0 0.23 1.19 0.18 0 34.21 0 1.50 29.04 -0.27 0 6.29 0 -0.05 -25.48 1.12 4.06 26.61 -1.12 -0.91 4.22 7.50 14.17 0 0 -64.92 29.15 -7.05 26.12 0 0 -0.16 0.01 -10.83 27.71 0 0 -16.82 -5.91 -2.11 2.29 -0.46 1.83 58.02 51.62 -65.82 5.29 0 0 -36.53 -7.39 4.46 3.01 0 0 -47.97 -7.73 4.83 9.37 0.29 2.59 -50.76 -4.99 5.34 4.34 0 0 -100.86 -15.27 12.86 2.16 0 0 -41.84 -3.25 8.03 9.47 0.83 0.29 -54.32 -8.37 5.76 4.77 0 0 -100.18 -18.90 15.92 2.87 0 0 -40.99 -3.81 11.96 8.65 1.01 -1.70 -57.71 -2.16 8.80 4.54 0 0 -85.38 -8.26 8.95 2.50 0 0 -30.54 -1.18 5.60 7.69 0.66 -3.90 -60.56 -14.09 14.57 3.21 0 0 -78.20 -12.88 20.10 1.92 0 0 -35.18 -3.83 13.85 -4.06 26.61 -1.12 0.35 1.55 -5.41 -14.17 0 0 71.57 20.98 0.89 -26.12 0 0 0.11 0 7.92 -27.71 0 0 12.74 3.07 11.35 -2.29 -0.46 1.83 -44.42 58.77 70.80 -5.29 0 0 39.89 -3.77 -8.87 -3.01 0 0 21.14 -3.70 -9.88 -9.37 0.29 2.59 61.17 -6.74 -7.06 -4.34 0 0 117.76 -18.89 -11.63 -2.16 0 0 18.90 -0.68 -3.66 -9.47 0.83 0.29 58.33 -9.09 -7.82 -4.77 0 0 89.95 -16.16 -16.26 -2.87 0 0 34.55 -2.72 -10.58 -8.65 1.01 -1.70 61.21 -2.80 -9.84 -4.54 0 0 88.08 -8.75 -9.05 -2.50 0 0 24.60 -0.77 -4.82 -7.69 0.66 -3.90 57.22 -13.60 -9.83 -3.21 0 0 84.72 -19.71 -21.57 -1.92 0 0 37.92 -4.46 -14.74 8.73 -0 0 11.59 -6.85 19.85 0 -46.66 0 1.86 36.52 -9.68 0 -40.14 0 -3.94 -21.41 2.18 0 -8.88 14.22 0 0 0 -8.73 0 -0 -9.01 -7.12 -24.46 0 -46.66 0 -9.01 34.90 12.09 0 -40.14 0 7.60 -20.36 -6.75 0 -8.88 14.22 0 0 0 
0.38 92.82 1.80 -0.44 -5.92 0.65 0 7.23 0 0.12 -0.35 0.08 0 16.54 0 0.22 1.13 0.17 0 34.21 0 1.49 28.99 -0.26 0 6.29 0 -0.09 -25.54 1.15 4.06 26.61 -1.12 -0.94 4.26 7.49 14.17 0 0 -64.97 29.14 -7.03 26.12 0 0 -0.16 0.01 -10.72 27.71 0 0 -16.93 -5.92 -1.99 2.29 -0.46 1.83 58.00 51.68 -65.81 5.29 0 0 -36.58 -7.41 4.46 3.01 0 0 -48.67 -7.73 4.89 9.37 0.29 2.59 -50.75 -4.99 5.34 4.34 0 0 -100.89 -15.27 12.86 2.16 0 0 -41.50 -3.19 7.97 9.47 0.83 0.29 -54.20 -8.36 5.76 4.77 0 0 -100.18 -18.90 15.92 2.87 0 0 -40.97 -3.81 11.96 8.65 1.01 -1.70 -57.57 -2.14 8.80 4.54 0 0 -85.25 -8.24 8.95 2.50 0 0 -30.40 -1.17 5.58 7.69 0.66 -3.90 -60.38 -14.05 14.57 3.21 0 0 -78.18 -12.87 20.10 1.92 0 0 -35.12 -3.81 13.84 -4.06 26.61 -1.12 0.32 1.54 -5.41 -14.17 0 0 71.62 20.97 0.82 -26.12 0 0 0.11 0 7.88 -27.71 0 0 12.92 3.12 11.29 -2.29 -0.46 1.83 -43.85 58.96 70.62 -5.29 0 0 39.81 -3.75 -8.86 -3.01 0 0 21.17 -3.69 -9.89 -9.37 0.29 2.59 61.15 -6.74 -7.09 -4.34 0 0 117.72 -18.89 -11.63 -2.16 0 0 18.26 -0.63 -3.52 -9.47 0.83 0.29 58.22 -9.08 -7.82 -4.77 0 0 89.98 -16.16 -16.26 -2.87 0 0 34.53 -2.72 -10.57 -8.65 1.01 -1.70 61.14 -2.78 -9.85 -4.54 0 0 88.08 -8.75 -9.05 -2.50 0 0 24.36 -0.74 -4.78 -7.69 0.66 -3.90 57.29 -13.61 -9.88 -3.21 0 0 84.70 -19.70 -21.57 -1.92 0 0 37.77 -4.42 -14.69 8.73 -0 0 11.35 -6.63 19.63 0 -46.66 0 1.79 35.79 -9.68 0 -40.14 0 -3.85 -21.12 2.62 0 -8.88 14.22 0 0 0 -8.73 0 -0 -8.92 -6.86 -24.46 0 -46.66 0 -8.87 34.02 12.05 0 -40.14 0 7.68 -19.89 -6.77 0 -8.88 14.22 0 0 0 
